<svg width="138" height="47" viewBox="0 0 138 47" fill="none" xmlns="http://www.w3.org/2000/svg">
<rect y="15" width="19" height="2" fill="#9E1030"/>
<rect x="119" y="15" width="19" height="2" fill="#9E1030"/>
<path d="M33.9258 28.9609L26.7578 29C26.6276 29 26.5625 28.9349 26.5625 28.8047L26.6406 1.32422C26.6406 1.22005 26.6927 1.16797 26.7969 1.16797L34.2773 1.12891C35.7617 1.08984 37.1029 1.42839 38.3008 2.14453C39.5117 2.86068 40.4753 3.83073 41.1914 5.05469C41.9206 6.26562 42.2852 7.60677 42.2852 9.07812V20.5625C42.2852 22.099 41.9141 23.5052 41.1719 24.7812C40.4167 26.0443 39.4141 27.0534 38.1641 27.8086C36.9141 28.5508 35.5013 28.9349 33.9258 28.9609ZM34.2773 5.91406L31.4844 5.95312L31.4453 24.0781H33.9258C34.9154 24.0781 35.7487 23.7331 36.4258 23.043C37.1029 22.3529 37.4414 21.526 37.4414 20.5625V9.03906C37.4414 8.19271 37.1289 7.45703 36.5039 6.83203C35.8789 6.19401 35.1367 5.88802 34.2773 5.91406ZM43.2617 28.8047L48.2227 1.32422C48.2487 1.22005 48.3138 1.16797 48.418 1.16797H54.2188C54.3229 1.16797 54.388 1.22005 54.4141 1.32422L59.1797 28.8047C59.1927 28.9349 59.1406 29 59.0234 29H54.5898C54.4596 29 54.388 28.9349 54.375 28.8047L53.9453 25.875H48.4961L48.0664 28.8047C48.0534 28.9349 47.9883 29 47.8711 29H43.418C43.3138 29 43.2617 28.9349 43.2617 28.8047ZM51.0938 10.3672L49.2969 21.5977H53.1445L51.5039 10.3672L51.2695 8.88281L51.0938 10.3672ZM66.0352 29H62.0312C61.8229 29 61.7188 28.9089 61.7188 28.7266L61.6797 1.48047C61.6797 1.27214 61.7839 1.16797 61.9922 1.16797H65.6055L72.3633 16.9297L72.168 1.48047C72.168 1.27214 72.2852 1.16797 72.5195 1.16797H76.4844C76.6406 1.16797 76.7188 1.27214 76.7188 1.48047L76.7578 28.7656C76.7578 28.9219 76.6927 29 76.5625 29H73.0469L66.1133 14.2734L66.4062 28.6875C66.4062 28.8958 66.2826 29 66.0352 29ZM84.9609 29H80.4297C80.2995 29 80.2344 28.9349 80.2344 28.8047L80.2734 1.32422C80.2734 1.22005 80.3255 1.16797 80.4297 1.16797H84.9219C85.026 1.16797 85.0781 1.22005 85.0781 1.32422L85.1172 28.8047C85.1172 28.9349 85.0651 29 84.9609 29ZM87.2852 28.8047L92.2461 1.32422C92.2721 1.22005 92.3372 1.16797 92.4414 1.16797H98.2422C98.3464 1.16797 98.4115 1.22005 98.4375 1.32422L103.203 28.8047C103.216 28.9349 103.164 29 103.047 29H98.6133C98.4831 29 98.4115 28.9349 98.3984 28.8047L97.9688 25.875H92.5195L92.0898 28.8047C92.0768 28.9349 92.0117 29 91.8945 29H87.4414C87.3372 29 87.2852 28.9349 87.2852 28.8047ZM95.1172 10.3672L93.3203 21.5977H97.168L95.5273 10.3672L95.293 8.88281L95.1172 10.3672ZM118.789 29H105.859C105.755 29 105.703 28.9349 105.703 28.8047L105.742 1.36328C105.742 1.23307 105.807 1.16797 105.938 1.16797H110.391C110.521 1.16797 110.586 1.23307 110.586 1.36328L110.547 24.0781H118.789C118.919 24.0781 118.984 24.1432 118.984 24.2734V28.8047C118.984 28.9349 118.919 29 118.789 29Z" fill="white"/>
<path d="M29.2219 46.1582C28.6365 46.1582 28.1013 46.0105 27.6161 45.7152C27.1362 45.4199 26.7539 45.0244 26.4691 44.5287C26.1896 44.0277 26.0499 43.4714 26.0499 42.8597L26.0657 37.8051C26.0657 37.2039 26.2028 36.6607 26.477 36.1756C26.7513 35.6852 27.1283 35.2923 27.6082 34.997C28.0934 34.6964 28.6312 34.5461 29.2219 34.5461C29.823 34.5461 30.3583 34.6911 30.8276 34.9812C31.3022 35.2712 31.6793 35.6641 31.9588 36.1598C32.2436 36.6502 32.3859 37.1986 32.3859 37.8051V38.5486C32.3859 38.5908 32.3648 38.6119 32.3227 38.6119H30.5033C30.4611 38.6119 30.44 38.5908 30.44 38.5486V37.8051C30.44 37.4465 30.324 37.138 30.092 36.8796C29.86 36.6212 29.5699 36.492 29.2219 36.492C28.8369 36.492 28.5416 36.6238 28.3359 36.8875C28.1303 37.1512 28.0274 37.457 28.0274 37.8051V42.8597C28.0274 43.2552 28.1435 43.5795 28.3755 43.8326C28.6075 44.0805 28.8896 44.2044 29.2219 44.2044C29.5699 44.2044 29.86 44.0673 30.092 43.7931C30.324 43.5136 30.44 43.2024 30.44 42.8597V42.1082C30.44 42.066 30.4611 42.0449 30.5033 42.0449H32.3385C32.3807 42.0449 32.4018 42.066 32.4018 42.1082V42.8597C32.4018 43.4661 32.2594 44.0198 31.9746 44.5208C31.6846 45.0165 31.3022 45.4146 30.8276 45.7152C30.353 46.0105 29.8178 46.1582 29.2219 46.1582ZM35.4788 46H33.6437C33.6015 46 33.5804 45.9736 33.5804 45.9209L33.612 34.7913C33.612 34.7491 33.6331 34.728 33.6753 34.728H36.9501C37.5354 34.728 38.0733 34.8704 38.5638 35.1552C39.0542 35.4399 39.4444 35.8223 39.7345 36.3021C40.0298 36.782 40.1774 37.3252 40.1774 37.9316C40.1774 38.3271 40.1168 38.6857 39.9955 39.0074C39.8742 39.3291 39.7318 39.6007 39.5684 39.8222C39.4102 40.0437 39.2651 40.2071 39.1333 40.3126C39.7187 40.9612 40.0113 41.7232 40.0113 42.5986L40.0271 45.9209C40.0271 45.9736 40.0008 46 39.948 46H38.1129C38.0707 46 38.0496 45.9842 38.0496 45.9525V42.5986C38.0496 42.2084 37.9125 41.8709 37.6383 41.5861C37.3641 41.3014 37.0266 41.159 36.6258 41.159H35.5579L35.5421 45.9209C35.5421 45.9736 35.521 46 35.4788 46ZM36.9501 36.666H35.5579V39.2131H36.9501C37.2823 39.2131 37.5776 39.0892 37.836 38.8413C38.0997 38.5935 38.2315 38.2902 38.2315 37.9316C38.2315 37.5889 38.105 37.2936 37.8519 37.0457C37.5987 36.7926 37.2981 36.666 36.9501 36.666ZM46.6954 46H41.4589C41.4167 46 41.3956 45.9736 41.3956 45.9209L41.4114 34.7913C41.4114 34.7491 41.4325 34.728 41.4747 34.728H46.6796C46.7218 34.728 46.7429 34.7544 46.7429 34.8071V36.6186C46.7429 36.6607 46.7218 36.6818 46.6796 36.6818H43.3573V39.2131H46.6796C46.7218 39.2131 46.7429 39.2342 46.7429 39.2764L46.7587 41.1115C46.7587 41.1537 46.7376 41.1748 46.6954 41.1748H43.3573V44.0066H46.6954C46.7376 44.0066 46.7587 44.033 46.7587 44.0857V45.9367C46.7587 45.9789 46.7376 46 46.6954 46ZM47.6525 45.9209L49.6617 34.7913C49.6723 34.7491 49.6986 34.728 49.7408 34.728H52.0901C52.1323 34.728 52.1587 34.7491 52.1692 34.7913L54.0993 45.9209C54.1046 45.9736 54.0835 46 54.036 46H52.2404C52.1877 46 52.1587 45.9736 52.1534 45.9209L51.9794 44.7344H49.7725L49.5984 45.9209C49.5932 45.9736 49.5668 46 49.5193 46H47.7158C47.6736 46 47.6525 45.9736 47.6525 45.9209ZM50.8245 38.4537L50.0968 43.0021H51.6551L50.9906 38.4537L50.8957 37.8525L50.8245 38.4537ZM57.5877 46H55.7604C55.713 46 55.6893 45.9736 55.6893 45.9209V36.6818H53.5852C53.5324 36.6818 53.5061 36.6555 53.5061 36.6027L53.5219 34.7913C53.5219 34.7491 53.543 34.728 53.5852 34.728H59.7393C59.7973 34.728 59.8263 34.7491 59.8263 34.7913V36.6027C59.8263 36.6555 59.8052 36.6818 59.763 36.6818H57.6352L57.651 45.9209C57.651 45.9736 57.6299 46 57.5877 46ZM62.5315 46H60.6964C60.6437 46 60.6173 45.9736 60.6173 45.9209L60.6331 34.7913C60.6331 34.7491 60.6542 34.728 60.6964 34.728H62.5157C62.5579 34.728 62.579 34.7491 62.579 34.7913L62.5948 45.9209C62.5948 45.9736 62.5737 46 62.5315 46ZM67.7997 46H65.838C65.7905 46 65.7642 45.9736 65.7589 45.9209L63.5203 34.7913C63.5098 34.7491 63.5309 34.728 63.5836 34.728H65.4188C65.4609 34.728 65.4873 34.7491 65.4979 34.7913L66.8268 42.211L68.124 34.7913C68.1346 34.7491 68.1609 34.728 68.2031 34.728H70.0146C70.0726 34.728 70.0937 34.7491 70.0778 34.7913L67.8788 45.9209C67.8735 45.9736 67.8472 46 67.7997 46ZM76.3269 46H71.0903C71.0481 46 71.0271 45.9736 71.0271 45.9209L71.0429 34.7913C71.0429 34.7491 71.064 34.728 71.1062 34.728H76.311C76.3532 34.728 76.3743 34.7544 76.3743 34.8071V36.6186C76.3743 36.6607 76.3532 36.6818 76.311 36.6818H72.9888V39.2131H76.311C76.3532 39.2131 76.3743 39.2342 76.3743 39.2764L76.3901 41.1115C76.3901 41.1537 76.369 41.1748 76.3269 41.1748H72.9888V44.0066H76.3269C76.369 44.0066 76.3901 44.033 76.3901 44.0857V45.9367C76.3901 45.9789 76.369 46 76.3269 46ZM85.0201 46.1582C84.4348 46.1582 83.8995 46.0105 83.4144 45.7152C82.9345 45.4199 82.5521 45.0244 82.2674 44.5287C81.9879 44.0277 81.8481 43.4714 81.8481 42.8597L81.864 37.8051C81.864 37.2039 82.0011 36.6607 82.2753 36.1756C82.5495 35.6852 82.9266 35.2923 83.4064 34.997C83.8916 34.6964 84.4295 34.5461 85.0201 34.5461C85.6213 34.5461 86.1565 34.6911 86.6259 34.9812C87.1005 35.2712 87.4775 35.6641 87.757 36.1598C88.0418 36.6502 88.1842 37.1986 88.1842 37.8051V38.5486C88.1842 38.5908 88.1631 38.6119 88.1209 38.6119H86.3016C86.2594 38.6119 86.2383 38.5908 86.2383 38.5486V37.8051C86.2383 37.4465 86.1223 37.138 85.8902 36.8796C85.6582 36.6212 85.3682 36.492 85.0201 36.492C84.6352 36.492 84.3398 36.6238 84.1342 36.8875C83.9285 37.1512 83.8257 37.457 83.8257 37.8051V42.8597C83.8257 43.2552 83.9417 43.5795 84.1737 43.8326C84.4058 44.0805 84.6879 44.2044 85.0201 44.2044C85.3682 44.2044 85.6582 44.0673 85.8902 43.7931C86.1223 43.5136 86.2383 43.2024 86.2383 42.8597V42.1082C86.2383 42.066 86.2594 42.0449 86.3016 42.0449H88.1367C88.1789 42.0449 88.2 42.066 88.2 42.1082V42.8597C88.2 43.4661 88.0576 44.0198 87.7729 44.5208C87.4828 45.0165 87.1005 45.4146 86.6259 45.7152C86.1513 46.0105 85.616 46.1582 85.0201 46.1582ZM92.3766 46.1582C91.8018 46.1582 91.2718 46.0105 90.7866 45.7152C90.3067 45.4199 89.9191 45.0271 89.6238 44.5366C89.3338 44.0409 89.1888 43.4978 89.1888 42.9071L89.2046 37.7734C89.2046 37.1723 89.3496 36.6317 89.6397 36.1519C89.9244 35.6667 90.3094 35.2791 90.7945 34.9891C91.2797 34.6937 91.807 34.5461 92.3766 34.5461C92.9672 34.5461 93.4972 34.6911 93.9665 34.9812C94.4411 35.2712 94.8208 35.6614 95.1056 36.1519C95.3956 36.637 95.5406 37.1775 95.5406 37.7734L95.5564 42.9071C95.5564 43.4978 95.4141 44.0383 95.1293 44.5287C94.8393 45.0244 94.4543 45.4199 93.9744 45.7152C93.4945 46.0105 92.9619 46.1582 92.3766 46.1582ZM92.3766 44.2044C92.7035 44.2044 92.9883 44.0726 93.2309 43.8089C93.4734 43.5399 93.5947 43.2394 93.5947 42.9071L93.5789 37.7734C93.5789 37.4148 93.4655 37.1116 93.2388 36.8638C93.012 36.6159 92.7246 36.492 92.3766 36.492C92.0443 36.492 91.7596 36.6133 91.5223 36.8559C91.285 37.0984 91.1663 37.4043 91.1663 37.7734V42.9071C91.1663 43.2604 91.285 43.5663 91.5223 43.8247C91.7596 44.0778 92.0443 44.2044 92.3766 44.2044ZM99.7647 45.9842L96.8616 46C96.8089 46 96.7825 45.9736 96.7825 45.9209L96.8142 34.7913C96.8142 34.7491 96.8353 34.728 96.8774 34.728L99.907 34.7122C100.508 34.6964 101.051 34.8335 101.537 35.1235C102.027 35.4136 102.417 35.8064 102.707 36.3021C103.003 36.7926 103.15 37.3357 103.15 37.9316V42.5828C103.15 43.2051 103 43.7746 102.699 44.2914C102.393 44.8029 101.987 45.2116 101.481 45.5175C100.975 45.8181 100.403 45.9736 99.7647 45.9842ZM99.907 36.6502L98.7759 36.666L98.7601 44.0066H99.7647C100.165 44.0066 100.503 43.8669 100.777 43.5874C101.051 43.3079 101.188 42.973 101.188 42.5828V37.9158C101.188 37.573 101.062 37.2751 100.809 37.022C100.556 36.7636 100.255 36.6396 99.907 36.6502ZM109.724 46H104.487C104.445 46 104.424 45.9736 104.424 45.9209L104.44 34.7913C104.44 34.7491 104.461 34.728 104.503 34.728H109.708C109.75 34.728 109.771 34.7544 109.771 34.8071V36.6186C109.771 36.6607 109.75 36.6818 109.708 36.6818H106.385V39.2131H109.708C109.75 39.2131 109.771 39.2342 109.771 39.2764L109.787 41.1115C109.787 41.1537 109.766 41.1748 109.724 41.1748H106.385V44.0066H109.724C109.766 44.0066 109.787 44.033 109.787 44.0857V45.9367C109.787 45.9789 109.766 46 109.724 46ZM113.125 46H111.29C111.248 46 111.226 45.9736 111.226 45.9209L111.258 34.7913C111.258 34.7491 111.279 34.728 111.321 34.728H114.596C115.182 34.728 115.719 34.8704 116.21 35.1552C116.7 35.4399 117.091 35.8223 117.381 36.3021C117.676 36.782 117.824 37.3252 117.824 37.9316C117.824 38.3271 117.763 38.6857 117.642 39.0074C117.52 39.3291 117.378 39.6007 117.214 39.8222C117.056 40.0437 116.911 40.2071 116.779 40.3126C117.365 40.9612 117.657 41.7232 117.657 42.5986L117.673 45.9209C117.673 45.9736 117.647 46 117.594 46H115.759C115.717 46 115.696 45.9842 115.696 45.9525V42.5986C115.696 42.2084 115.559 41.8709 115.284 41.5861C115.01 41.3014 114.673 41.159 114.272 41.159H113.204L113.188 45.9209C113.188 45.9736 113.167 46 113.125 46ZM114.596 36.666H113.204V39.2131H114.596C114.928 39.2131 115.224 39.0892 115.482 38.8413C115.746 38.5935 115.878 38.2902 115.878 37.9316C115.878 37.5889 115.751 37.2936 115.498 37.0457C115.245 36.7926 114.944 36.666 114.596 36.666Z" fill="white"/>
</svg>
