<svg width="616" height="168" viewBox="0 0 616 168" fill="none" xmlns="http://www.w3.org/2000/svg">
<path d="M220.995 15.73C229.428 15.73 236.827 17.3783 243.19 20.675C249.63 23.9717 254.575 28.6867 258.025 34.82C261.552 40.8767 263.315 47.93 263.315 55.98C263.315 64.03 261.552 71.0833 258.025 77.14C254.575 83.12 249.63 87.7583 243.19 91.055C236.827 94.3517 229.428 96 220.995 96H192.935V15.73H220.995ZM220.42 82.315C228.853 82.315 235.37 80.015 239.97 75.415C244.57 70.815 246.87 64.3367 246.87 55.98C246.87 47.6233 244.57 41.1067 239.97 36.43C235.37 31.6767 228.853 29.3 220.42 29.3H209.035V82.315H220.42ZM324.587 80.705H292.617L287.327 96H270.422L299.287 15.615H318.032L346.897 96H329.877L324.587 80.705ZM320.217 67.825L308.602 34.245L296.987 67.825H320.217ZM426.341 96H410.241L373.786 40.915V96H357.686V15.615H373.786L410.241 70.815V15.615H426.341V96ZM458.351 15.73V96H442.251V15.73H458.351ZM523.478 80.705H491.508L486.218 96H469.313L498.178 15.615H516.923L545.788 96H528.768L523.478 80.705ZM519.108 67.825L507.493 34.245L495.878 67.825H519.108ZM572.678 83.235H599.128V96H556.578V15.73H572.678V83.235Z" fill="white"/>
<path d="M242.556 117.756L232.052 154H226.748L218.324 124.828L209.588 154L204.336 154.052L194.196 117.756H199.24L207.144 148.488L215.88 117.756H221.184L229.504 148.384L237.46 117.756H242.556ZM252.466 121.604V133.72H265.674V137.62H252.466V150.1H267.234V154H247.734V117.704H267.234V121.604H252.466ZM292.543 135.332C293.86 135.54 295.056 136.077 296.131 136.944C297.24 137.811 298.107 138.885 298.731 140.168C299.389 141.451 299.719 142.82 299.719 144.276C299.719 146.113 299.251 147.777 298.315 149.268C297.379 150.724 296.009 151.885 294.207 152.752C292.439 153.584 290.341 154 287.915 154H274.395V117.756H287.395C289.856 117.756 291.953 118.172 293.687 119.004C295.42 119.801 296.72 120.893 297.587 122.28C298.453 123.667 298.887 125.227 298.887 126.96C298.887 129.109 298.297 130.895 297.119 132.316C295.975 133.703 294.449 134.708 292.543 135.332ZM279.127 133.408H287.083C289.301 133.408 291.017 132.888 292.231 131.848C293.444 130.808 294.051 129.369 294.051 127.532C294.051 125.695 293.444 124.256 292.231 123.216C291.017 122.176 289.267 121.656 286.979 121.656H279.127V133.408ZM287.499 150.1C289.856 150.1 291.693 149.545 293.011 148.436C294.328 147.327 294.987 145.784 294.987 143.808C294.987 141.797 294.293 140.22 292.907 139.076C291.52 137.897 289.665 137.308 287.343 137.308H279.127V150.1H287.499Z" fill="#CF1F1F"/>
<path d="M331.433 117.756C335.385 117.756 338.799 118.501 341.677 119.992C344.589 121.448 346.807 123.545 348.333 126.284C349.893 129.023 350.673 132.247 350.673 135.956C350.673 139.665 349.893 142.889 348.333 145.628C346.807 148.332 344.589 150.412 341.677 151.868C338.799 153.289 335.385 154 331.433 154H320.149V117.756H331.433ZM331.433 150.1C336.113 150.1 339.683 148.869 342.145 146.408C344.606 143.912 345.837 140.428 345.837 135.956C345.837 131.449 344.589 127.931 342.093 125.4C339.631 122.869 336.078 121.604 331.433 121.604H324.881V150.1H331.433ZM361.646 121.604V133.72H374.854V137.62H361.646V150.1H376.414V154H356.914V117.704H376.414V121.604H361.646ZM413.526 117.756L399.85 154H394.39L380.714 117.756H385.758L397.146 149.008L408.534 117.756H413.526ZM423.447 121.604V133.72H436.655V137.62H423.447V150.1H438.215V154H418.715V117.704H438.215V121.604H423.447ZM450.107 150.152H462.795V154H445.375V117.756H450.107V150.152ZM484.252 154.364C480.89 154.364 477.822 153.584 475.048 152.024C472.275 150.429 470.074 148.228 468.444 145.42C466.85 142.577 466.052 139.388 466.052 135.852C466.052 132.316 466.85 129.144 468.444 126.336C470.074 123.493 472.275 121.292 475.048 119.732C477.822 118.137 480.89 117.34 484.252 117.34C487.65 117.34 490.735 118.137 493.508 119.732C496.282 121.292 498.466 123.476 500.06 126.284C501.655 129.092 502.452 132.281 502.452 135.852C502.452 139.423 501.655 142.612 500.06 145.42C498.466 148.228 496.282 150.429 493.508 152.024C490.735 153.584 487.65 154.364 484.252 154.364ZM484.252 150.256C486.783 150.256 489.054 149.667 491.064 148.488C493.11 147.309 494.704 145.628 495.848 143.444C497.027 141.26 497.616 138.729 497.616 135.852C497.616 132.94 497.027 130.409 495.848 128.26C494.704 126.076 493.127 124.395 491.116 123.216C489.106 122.037 486.818 121.448 484.252 121.448C481.687 121.448 479.399 122.037 477.388 123.216C475.378 124.395 473.783 126.076 472.604 128.26C471.46 130.409 470.888 132.94 470.888 135.852C470.888 138.729 471.46 141.26 472.604 143.444C473.783 145.628 475.378 147.309 477.388 148.488C479.434 149.667 481.722 150.256 484.252 150.256ZM532.931 128.364C532.931 131.38 531.891 133.893 529.811 135.904C527.766 137.88 524.629 138.868 520.399 138.868H513.431V154H508.699V117.756H520.399C524.49 117.756 527.593 118.744 529.707 120.72C531.857 122.696 532.931 125.244 532.931 128.364ZM520.399 134.968C523.034 134.968 524.975 134.396 526.223 133.252C527.471 132.108 528.095 130.479 528.095 128.364C528.095 123.892 525.53 121.656 520.399 121.656H513.431V134.968H520.399ZM543.545 121.604V133.72H556.753V137.62H543.545V150.1H558.313V154H538.813V117.704H558.313V121.604H543.545ZM584.557 154L575.925 139.18H570.205V154H565.473V117.756H577.173C579.911 117.756 582.217 118.224 584.089 119.16C585.995 120.096 587.417 121.361 588.353 122.956C589.289 124.551 589.757 126.371 589.757 128.416C589.757 130.912 589.029 133.113 587.573 135.02C586.151 136.927 584.002 138.192 581.125 138.816L590.225 154H584.557ZM570.205 135.384H577.173C579.738 135.384 581.662 134.76 582.945 133.512C584.227 132.229 584.869 130.531 584.869 128.416C584.869 126.267 584.227 124.603 582.945 123.424C581.697 122.245 579.773 121.656 577.173 121.656H570.205V135.384Z" fill="white" fill-opacity="0.266667"/>
<g clip-path="url(#clip0_209_14)">
<path d="M162 44.2852V20.5547C162 12.7037 155.613 6.31641 147.762 6.31641H14.2383C6.38729 6.31641 0 12.7037 0 20.5547V44.2852H162ZM109.477 25.3008H137.953C140.574 25.3008 142.699 27.4258 142.699 30.0469C142.699 32.668 140.574 34.793 137.953 34.793H109.477C106.855 34.793 104.73 32.668 104.73 30.0469C104.73 27.4258 106.855 25.3008 109.477 25.3008ZM62.0156 25.3008C64.6367 25.3008 66.7617 27.4258 66.7617 30.0469C66.7617 32.668 64.6367 34.793 62.0156 34.793C59.3945 34.793 57.2695 32.668 57.2695 30.0469C57.2695 27.4258 59.3945 25.3008 62.0156 25.3008ZM43.0312 25.3008C45.6524 25.3008 47.7773 27.4258 47.7773 30.0469C47.7773 32.668 45.6524 34.793 43.0312 34.793C40.4101 34.793 38.2852 32.668 38.2852 30.0469C38.2852 27.4258 40.4101 25.3008 43.0312 25.3008ZM24.0469 25.3008C26.668 25.3008 28.793 27.4258 28.793 30.0469C28.793 32.668 26.668 34.793 24.0469 34.793C21.4258 34.793 19.3008 32.668 19.3008 30.0469C19.3008 27.4258 21.4258 25.3008 24.0469 25.3008ZM0 53.7773V153.445C0 161.296 6.38729 167.684 14.2383 167.684H147.762C155.613 167.684 162 161.296 162 153.445V53.7773H0ZM55.4882 121.263C57.5353 122.9 57.8669 125.887 56.2295 127.933C54.5924 129.98 51.6052 130.312 49.5587 128.675L25.8282 109.69C23.4555 107.793 23.4539 104.177 25.8282 102.278L49.5587 83.2936C51.6046 81.6562 54.5918 81.9878 56.2295 84.0346C57.8669 86.0815 57.5353 89.0683 55.4882 90.7054L36.3905 105.984L55.4882 121.263ZM99.6006 74.6314L71.124 141.077C70.0916 143.485 67.3021 144.602 64.8921 143.569C62.483 142.537 61.3667 139.747 62.3994 137.337L90.876 70.8921C91.9087 68.483 94.6988 67.367 97.1079 68.3994C99.517 69.4319 100.633 72.2219 99.6006 74.6314ZM136.172 109.69L112.441 128.675C110.398 130.31 107.41 129.983 105.77 127.934C104.133 125.887 104.465 122.9 106.512 121.263L125.609 105.984L106.512 90.7061C104.465 89.0687 104.133 86.0821 105.77 84.0353C107.408 81.9884 110.394 81.6565 112.441 83.2942L136.172 102.279C138.544 104.176 138.546 107.791 136.172 109.69Z" fill="#CF1F1F"/>
</g>
<defs>
<clipPath id="clip0_209_14">
<rect width="162" height="162" fill="white" transform="translate(0 6)"/>
</clipPath>
</defs>
</svg>
