<svg width="138" height="47" viewBox="0 0 138 47" fill="none" xmlns="http://www.w3.org/2000/svg">
<rect y="15" width="19" height="2" fill="#9E1030"/>
<rect x="119" y="15" width="19" height="2" fill="#9E1030"/>
<path d="M33.9258 28.9609L26.7578 29C26.6276 29 26.5625 28.9349 26.5625 28.8047L26.6406 1.32422C26.6406 1.22005 26.6927 1.16797 26.7969 1.16797L34.2773 1.12891C35.7617 1.08984 37.1029 1.42839 38.3008 2.14453C39.5117 2.86068 40.4753 3.83073 41.1914 5.05469C41.9206 6.26562 42.2852 7.60677 42.2852 9.07812V20.5625C42.2852 22.099 41.9141 23.5052 41.1719 24.7812C40.4167 26.0443 39.4141 27.0534 38.1641 27.8086C36.9141 28.5508 35.5013 28.9349 33.9258 28.9609ZM34.2773 5.91406L31.4844 5.95312L31.4453 24.0781H33.9258C34.9154 24.0781 35.7487 23.7331 36.4258 23.043C37.1029 22.3529 37.4414 21.526 37.4414 20.5625V9.03906C37.4414 8.19271 37.1289 7.45703 36.5039 6.83203C35.8789 6.19401 35.1367 5.88802 34.2773 5.91406ZM43.2617 28.8047L48.2227 1.32422C48.2487 1.22005 48.3138 1.16797 48.418 1.16797H54.2188C54.3229 1.16797 54.388 1.22005 54.4141 1.32422L59.1797 28.8047C59.1927 28.9349 59.1406 29 59.0234 29H54.5898C54.4596 29 54.388 28.9349 54.375 28.8047L53.9453 25.875H48.4961L48.0664 28.8047C48.0534 28.9349 47.9883 29 47.8711 29H43.418C43.3138 29 43.2617 28.9349 43.2617 28.8047ZM51.0938 10.3672L49.2969 21.5977H53.1445L51.5039 10.3672L51.2695 8.88281L51.0938 10.3672ZM66.0352 29H62.0312C61.8229 29 61.7188 28.9089 61.7188 28.7266L61.6797 1.48047C61.6797 1.27214 61.7839 1.16797 61.9922 1.16797H65.6055L72.3633 16.9297L72.168 1.48047C72.168 1.27214 72.2852 1.16797 72.5195 1.16797H76.4844C76.6406 1.16797 76.7188 1.27214 76.7188 1.48047L76.7578 28.7656C76.7578 28.9219 76.6927 29 76.5625 29H73.0469L66.1133 14.2734L66.4062 28.6875C66.4062 28.8958 66.2826 29 66.0352 29ZM84.9609 29H80.4297C80.2995 29 80.2344 28.9349 80.2344 28.8047L80.2734 1.32422C80.2734 1.22005 80.3255 1.16797 80.4297 1.16797H84.9219C85.026 1.16797 85.0781 1.22005 85.0781 1.32422L85.1172 28.8047C85.1172 28.9349 85.0651 29 84.9609 29ZM87.2852 28.8047L92.2461 1.32422C92.2721 1.22005 92.3372 1.16797 92.4414 1.16797H98.2422C98.3464 1.16797 98.4115 1.22005 98.4375 1.32422L103.203 28.8047C103.216 28.9349 103.164 29 103.047 29H98.6133C98.4831 29 98.4115 28.9349 98.3984 28.8047L97.9688 25.875H92.5195L92.0898 28.8047C92.0768 28.9349 92.0117 29 91.8945 29H87.4414C87.3372 29 87.2852 28.9349 87.2852 28.8047ZM95.1172 10.3672L93.3203 21.5977H97.168L95.5273 10.3672L95.293 8.88281L95.1172 10.3672ZM118.789 29H105.859C105.755 29 105.703 28.9349 105.703 28.8047L105.742 1.36328C105.742 1.23307 105.807 1.16797 105.938 1.16797H110.391C110.521 1.16797 110.586 1.23307 110.586 1.36328L110.547 24.0781H118.789C118.919 24.0781 118.984 24.1432 118.984 24.2734V28.8047C118.984 28.9349 118.919 29 118.789 29Z" fill="white"/>
<path d="M17.0603 46.1582C16.4749 46.1582 15.9396 46.0105 15.4545 45.7152C14.9746 45.4199 14.5923 45.0244 14.3075 44.5287C14.028 44.0277 13.8883 43.4714 13.8883 42.8597L13.9041 37.8051C13.9041 37.2039 14.0412 36.6607 14.3154 36.1756C14.5896 35.6852 14.9667 35.2923 15.4466 34.997C15.9317 34.6964 16.4696 34.5461 17.0603 34.5461C17.6614 34.5461 18.1967 34.6911 18.666 34.9812C19.1406 35.2712 19.5177 35.6641 19.7972 36.1598C20.0819 36.6502 20.2243 37.1986 20.2243 37.8051V38.5486C20.2243 38.5908 20.2032 38.6119 20.161 38.6119H18.3417C18.2995 38.6119 18.2784 38.5908 18.2784 38.5486V37.8051C18.2784 37.4465 18.1624 37.138 17.9304 36.8796C17.6983 36.6212 17.4083 36.492 17.0603 36.492C16.6753 36.492 16.38 36.6238 16.1743 36.8875C15.9687 37.1512 15.8658 37.457 15.8658 37.8051V42.8597C15.8658 43.2552 15.9818 43.5795 16.2139 43.8326C16.4459 44.0805 16.728 44.2044 17.0603 44.2044C17.4083 44.2044 17.6983 44.0673 17.9304 43.7931C18.1624 43.5136 18.2784 43.2024 18.2784 42.8597V42.1082C18.2784 42.066 18.2995 42.0449 18.3417 42.0449H20.1769C20.219 42.0449 20.2401 42.066 20.2401 42.1082V42.8597C20.2401 43.4661 20.0978 44.0198 19.813 44.5208C19.5229 45.0165 19.1406 45.4146 18.666 45.7152C18.1914 46.0105 17.6562 46.1582 17.0603 46.1582ZM23.3172 46H21.482C21.4398 46 21.4187 45.9736 21.4187 45.9209L21.4504 34.7913C21.4504 34.7491 21.4715 34.728 21.5137 34.728H24.7885C25.3738 34.728 25.9117 34.8704 26.4021 35.1552C26.8926 35.4399 27.2828 35.8223 27.5729 36.3021C27.8682 36.782 28.0158 37.3252 28.0158 37.9316C28.0158 38.3271 27.9552 38.6857 27.8339 39.0074C27.7126 39.3291 27.5702 39.6007 27.4067 39.8222C27.2485 40.0437 27.1035 40.2071 26.9717 40.3126C27.557 40.9612 27.8497 41.7232 27.8497 42.5986L27.8655 45.9209C27.8655 45.9736 27.8392 46 27.7864 46H25.9513C25.9091 46 25.888 45.9842 25.888 45.9525V42.5986C25.888 42.2084 25.7509 41.8709 25.4767 41.5861C25.2024 41.3014 24.8649 41.159 24.4642 41.159H23.3963L23.3805 45.9209C23.3805 45.9736 23.3594 46 23.3172 46ZM24.7885 36.666H23.3963V39.2131H24.7885C25.1207 39.2131 25.416 39.0892 25.6744 38.8413C25.9381 38.5935 26.0699 38.2902 26.0699 37.9316C26.0699 37.5889 25.9434 37.2936 25.6902 37.0457C25.4371 36.7926 25.1365 36.666 24.7885 36.666ZM34.5338 46H29.2973C29.2551 46 29.234 45.9736 29.234 45.9209L29.2498 34.7913C29.2498 34.7491 29.2709 34.728 29.3131 34.728H34.518C34.5602 34.728 34.5813 34.7544 34.5813 34.8071V36.6186C34.5813 36.6607 34.5602 36.6818 34.518 36.6818H31.1957V39.2131H34.518C34.5602 39.2131 34.5813 39.2342 34.5813 39.2764L34.5971 41.1115C34.5971 41.1537 34.576 41.1748 34.5338 41.1748H31.1957V44.0066H34.5338C34.576 44.0066 34.5971 44.033 34.5971 44.0857V45.9367C34.5971 45.9789 34.576 46 34.5338 46ZM35.4909 45.9209L37.5001 34.7913C37.5106 34.7491 37.537 34.728 37.5792 34.728H39.9285C39.9707 34.728 39.9971 34.7491 40.0076 34.7913L41.9377 45.9209C41.943 45.9736 41.9219 46 41.8744 46H40.0788C40.0261 46 39.9971 45.9736 39.9918 45.9209L39.8178 44.7344H37.6108L37.4368 45.9209C37.4315 45.9736 37.4052 46 37.3577 46H35.5542C35.512 46 35.4909 45.9736 35.4909 45.9209ZM38.6629 38.4537L37.9352 43.0021H39.4935L38.829 38.4537L38.7341 37.8525L38.6629 38.4537ZM45.4261 46H43.5988C43.5514 46 43.5276 45.9736 43.5276 45.9209V36.6818H41.4235C41.3708 36.6818 41.3444 36.6555 41.3444 36.6027L41.3603 34.7913C41.3603 34.7491 41.3813 34.728 41.4235 34.728H47.5776C47.6356 34.728 47.6646 34.7491 47.6646 34.7913V36.6027C47.6646 36.6555 47.6436 36.6818 47.6014 36.6818H45.4735L45.4894 45.9209C45.4894 45.9736 45.4683 46 45.4261 46ZM50.3699 46H48.5348C48.482 46 48.4557 45.9736 48.4557 45.9209L48.4715 34.7913C48.4715 34.7491 48.4926 34.728 48.5348 34.728H50.3541C50.3963 34.728 50.4174 34.7491 50.4174 34.7913L50.4332 45.9209C50.4332 45.9736 50.4121 46 50.3699 46ZM55.6381 46H53.6764C53.6289 46 53.6025 45.9736 53.5973 45.9209L51.3587 34.7913C51.3481 34.7491 51.3692 34.728 51.422 34.728H53.2571C53.2993 34.728 53.3257 34.7491 53.3362 34.7913L54.6651 42.211L55.9624 34.7913C55.9729 34.7491 55.9993 34.728 56.0415 34.728H57.8529C57.9109 34.728 57.932 34.7491 57.9162 34.7913L55.7172 45.9209C55.7119 45.9736 55.6855 46 55.6381 46ZM64.1652 46H58.9287C58.8865 46 58.8654 45.9736 58.8654 45.9209L58.8813 34.7913C58.8813 34.7491 58.9023 34.728 58.9445 34.728H64.1494C64.1916 34.728 64.2127 34.7544 64.2127 34.8071V36.6186C64.2127 36.6607 64.1916 36.6818 64.1494 36.6818H60.8272V39.2131H64.1494C64.1916 39.2131 64.2127 39.2342 64.2127 39.2764L64.2285 41.1115C64.2285 41.1537 64.2074 41.1748 64.1652 41.1748H60.8272V44.0066H64.1652C64.2074 44.0066 64.2285 44.033 64.2285 44.0857V45.9367C64.2285 45.9789 64.2074 46 64.1652 46ZM72.8585 45.9842L69.9555 46C69.9027 46 69.8764 45.9736 69.8764 45.9209L69.908 34.7913C69.908 34.7491 69.9291 34.728 69.9713 34.728L73.0009 34.7122C73.6021 34.6964 74.1452 34.8335 74.6304 35.1235C75.1208 35.4136 75.511 35.8064 75.8011 36.3021C76.0964 36.7926 76.244 37.3357 76.244 37.9316V42.5828C76.244 43.2051 76.0938 43.7746 75.7932 44.2914C75.4873 44.8029 75.0813 45.2116 74.575 45.5175C74.0688 45.8181 73.4966 45.9736 72.8585 45.9842ZM73.0009 36.6502L71.8697 36.666L71.8539 44.0066H72.8585C73.2593 44.0066 73.5968 43.8669 73.871 43.5874C74.1452 43.3079 74.2823 42.973 74.2823 42.5828V37.9158C74.2823 37.573 74.1558 37.2751 73.9026 37.022C73.6495 36.7636 73.3489 36.6396 73.0009 36.6502ZM82.8174 46H77.5809C77.5387 46 77.5176 45.9736 77.5176 45.9209L77.5334 34.7913C77.5334 34.7491 77.5545 34.728 77.5967 34.728H82.8016C82.8438 34.728 82.8649 34.7544 82.8649 34.8071V36.6186C82.8649 36.6607 82.8438 36.6818 82.8016 36.6818H79.4793V39.2131H82.8016C82.8438 39.2131 82.8649 39.2342 82.8649 39.2764L82.8807 41.1115C82.8807 41.1537 82.8596 41.1748 82.8174 41.1748H79.4793V44.0066H82.8174C82.8596 44.0066 82.8807 44.033 82.8807 44.0857V45.9367C82.8807 45.9789 82.8596 46 82.8174 46ZM87.0731 46.1582C86.4982 46.1582 85.9683 46.0105 85.4831 45.7152C85.0032 45.4199 84.6183 45.0271 84.3282 44.5366C84.0435 44.0409 83.9011 43.4978 83.9011 42.9071V42.1636C83.9011 42.1056 83.9274 42.0766 83.9802 42.0766H85.7995C85.8417 42.0766 85.8628 42.1056 85.8628 42.1636V42.9071C85.8628 43.2604 85.9815 43.5663 86.2188 43.8247C86.4561 44.0778 86.7408 44.2044 87.0731 44.2044C87.4106 44.2044 87.698 44.0752 87.9353 43.8168C88.1726 43.5531 88.2912 43.2499 88.2912 42.9071C88.2912 42.5116 88.0328 42.1662 87.516 41.8709C87.4316 41.8182 87.3209 41.7549 87.1838 41.6811C87.052 41.602 86.8938 41.5123 86.7092 41.4121C86.5246 41.3119 86.3453 41.2144 86.1713 41.1194C85.9973 41.0192 85.8285 40.9243 85.665 40.8347C85.0744 40.4866 84.6341 40.0516 84.344 39.5295C84.0593 39.0021 83.9169 38.4115 83.9169 37.7576C83.9169 37.1564 84.0646 36.6133 84.3599 36.1281C84.6552 35.6482 85.0401 35.2686 85.5148 34.9891C85.9946 34.7043 86.5141 34.5619 87.0731 34.5619C87.6479 34.5619 88.1752 34.7043 88.6551 34.9891C89.135 35.2791 89.5173 35.6641 89.8021 36.1439C90.0921 36.6238 90.2371 37.1617 90.2371 37.7576V39.0865C90.2371 39.1287 90.216 39.1498 90.1738 39.1498H88.3545C88.3123 39.1498 88.2912 39.1287 88.2912 39.0865L88.2754 37.7576C88.2754 37.3779 88.1567 37.0694 87.9194 36.8321C87.6821 36.5948 87.4 36.4762 87.0731 36.4762C86.7408 36.4762 86.4561 36.6027 86.2188 36.8559C85.9815 37.109 85.8628 37.4096 85.8628 37.7576C85.8628 38.1109 85.9366 38.4062 86.0843 38.6436C86.2372 38.8809 86.5141 39.1076 86.9149 39.3238C86.957 39.3449 87.0546 39.3977 87.2075 39.482C87.3605 39.5664 87.5292 39.6613 87.7138 39.7668C87.9036 39.867 88.075 39.9593 88.2279 40.0437C88.3809 40.1228 88.4732 40.1702 88.5048 40.186C89.0427 40.4866 89.4672 40.8558 89.7783 41.2935C90.0947 41.7312 90.2529 42.269 90.2529 42.9071C90.2529 43.5241 90.1106 44.0778 89.8258 44.5683C89.5357 45.0587 89.1508 45.4463 88.6709 45.7311C88.191 46.0158 87.6584 46.1582 87.0731 46.1582ZM93.2904 46H91.4553C91.4025 46 91.3762 45.9736 91.3762 45.9209L91.392 34.7913C91.392 34.7491 91.4131 34.728 91.4553 34.728H93.2746C93.3168 34.728 93.3379 34.7491 93.3379 34.7913L93.3537 45.9209C93.3537 45.9736 93.3326 46 93.2904 46ZM97.7438 46.1582C97.1585 46.1582 96.6312 46.0132 96.1618 45.7231C95.6872 45.4331 95.3049 45.0429 95.0148 44.5524C94.7301 44.062 94.5877 43.5136 94.5877 42.9071V37.7734C94.5877 37.1828 94.7327 36.6449 95.0228 36.1598C95.3075 35.6693 95.6898 35.2791 96.1697 34.9891C96.6496 34.6937 97.1743 34.5461 97.7438 34.5461C98.3397 34.5461 98.8776 34.6885 99.3575 34.9732C99.8374 35.2633 100.217 35.6509 100.497 36.136C100.781 36.6212 100.924 37.167 100.924 37.7734V38.517C100.924 38.5592 100.897 38.5803 100.845 38.5803H99.0253C98.9831 38.5803 98.962 38.5592 98.962 38.517V37.9C98.962 37.4887 98.846 37.1485 98.614 36.8796C98.3819 36.6106 98.0919 36.4762 97.7438 36.4762C97.4327 36.4762 97.1559 36.6054 96.9133 36.8638C96.6707 37.1222 96.5494 37.4254 96.5494 37.7734V42.9071C96.5494 43.2604 96.6681 43.5663 96.9054 43.8247C97.1427 44.0778 97.4222 44.2044 97.7438 44.2044C98.0919 44.2044 98.3819 44.0805 98.614 43.8326C98.846 43.5795 98.962 43.271 98.962 42.9071V42.1082H97.8309C97.7729 42.1082 97.7438 42.0818 97.7438 42.0291V40.2177C97.7438 40.1649 97.7729 40.1386 97.8309 40.1386H100.86C100.903 40.1386 100.924 40.1649 100.924 40.2177V42.9071C100.924 43.5136 100.781 44.062 100.497 44.5524C100.207 45.0429 99.8242 45.4331 99.3496 45.7231C98.875 46.0132 98.3397 46.1582 97.7438 46.1582ZM103.835 46H102.213C102.129 46 102.087 45.9631 102.087 45.8893L102.071 34.8546C102.071 34.7702 102.113 34.728 102.197 34.728H103.661L106.398 41.1115L106.318 34.8546C106.318 34.7702 106.366 34.728 106.461 34.728H108.067C108.13 34.728 108.162 34.7702 108.162 34.8546L108.177 45.9051C108.177 45.9684 108.151 46 108.098 46H106.674L103.866 40.0357L103.985 45.8734C103.985 45.9578 103.935 46 103.835 46ZM114.885 46H109.649C109.606 46 109.585 45.9736 109.585 45.9209L109.601 34.7913C109.601 34.7491 109.622 34.728 109.664 34.728H114.869C114.912 34.728 114.933 34.7544 114.933 34.8071V36.6186C114.933 36.6607 114.912 36.6818 114.869 36.6818H111.547V39.2131H114.869C114.912 39.2131 114.933 39.2342 114.933 39.2764L114.948 41.1115C114.948 41.1537 114.927 41.1748 114.885 41.1748H111.547V44.0066H114.885C114.927 44.0066 114.948 44.033 114.948 44.0857V45.9367C114.948 45.9789 114.927 46 114.885 46ZM118.287 46H116.451C116.409 46 116.388 45.9736 116.388 45.9209L116.42 34.7913C116.42 34.7491 116.441 34.728 116.483 34.728H119.758C120.343 34.728 120.881 34.8704 121.371 35.1552C121.862 35.4399 122.252 35.8223 122.542 36.3021C122.838 36.782 122.985 37.3252 122.985 37.9316C122.985 38.3271 122.925 38.6857 122.803 39.0074C122.682 39.3291 122.54 39.6007 122.376 39.8222C122.218 40.0437 122.073 40.2071 121.941 40.3126C122.526 40.9612 122.819 41.7232 122.819 42.5986L122.835 45.9209C122.835 45.9736 122.809 46 122.756 46H120.921C120.878 46 120.857 45.9842 120.857 45.9525V42.5986C120.857 42.2084 120.72 41.8709 120.446 41.5861C120.172 41.3014 119.834 41.159 119.434 41.159H118.366L118.35 45.9209C118.35 45.9736 118.329 46 118.287 46ZM119.758 36.666H118.366V39.2131H119.758C120.09 39.2131 120.385 39.0892 120.644 38.8413C120.907 38.5935 121.039 38.2902 121.039 37.9316C121.039 37.5889 120.913 37.2936 120.66 37.0457C120.406 36.7926 120.106 36.666 119.758 36.666Z" fill="white"/>
</svg>
